<svg xmlns="http://www.w3.org/2000/svg" viewBox="0 0 104.8 104.8">
  <defs>
    <style>
      .cls-1 {
        fill: #4a92a4;
      }

      .cls-2 {
        fill: none;
      }
    </style>
  </defs>
  <title>Mizu-logo</title>
  <g id="图层_2" data-name="图层 2">
    <g id="图层_1-2" data-name="图层 1">
      <g>
        <g>
          <path class="cls-1" d="M13.33,47.36,5.32,55a27,27,0,0,1-1.13-7.66,25.7,25.7,0,0,1,9.19-20.21q9.19-8,23.11-8a37.2,37.2,0,0,1,4.07.2q1.18.1,1.57.1h.64q0,1.42,0,2.06,0,7.56,6.61,24.36l2.22,5.6Q52,52.62,53,55.32l1.82,5.11q1.48,4,2.56,8l2.55-4.22q4.22-7,7.56-12.77l4.81-8.3L76,36.26,80.53,28q.64-1.13,2.5-4.62l9.51-5.94q-3.14,18.32-3.14,29.42l-.64,16.06-.15,6q0,7.66,1,10t4.3,2.38a18.48,18.48,0,0,0,6.24-1,1.82,1.82,0,0,1,.44,1q0,1.62-3.35,2.41l-2.61.64-14,2.85q-.25-4.62-.25-8.5a395.73,395.73,0,0,1,2.22-44.5Q75.87,44,72.43,50L69.49,55a142.38,142.38,0,0,0-9.77,20.09l-7.05,7.37Q52,73.2,45.33,56.4l-1.92-5q-.39-.88-1.77-4.32a78.77,78.77,0,0,1-4.19-13l-4,24.3Q31.69,69.4,29.8,73.35a14.65,14.65,0,0,1-6.75,6.51l12.3.9-6.23,5.8-21-1.08,6.34-6.09,5.55.47A13.38,13.38,0,0,0,24.67,74Q26,70.48,27.86,59.88l5.89-34.52H31.45Q11,25.36,11,38.87A17.75,17.75,0,0,0,13.33,47.36Z"/>
          <g>
            <path class="cls-1" d="M93.06,72.31l-1.4-.57a3.34,3.34,0,0,0-.86-1.25.33.33,0,0,1,.2-.07Q91.9,70.42,93.06,72.31ZM98.45,71q.11-.18.21-.18a2.29,2.29,0,0,1,1,.59,2.11,2.11,0,0,1,1,1.47q0,.49-.66.5-.28,0-1.71-.2l-1.84-.26-.47-.07-.37-.05-.4,0q-.34,0-.34.19,0,.53,1.16,1.13a.32.32,0,0,1-.23.13q-.41,0-1.11-.76a2.13,2.13,0,0,1-.7-1.22q0-.51.7-.51l.56.05.45.06.55.08,1.94.28.43.07a8.11,8.11,0,0,0,.86.09c.19,0,.29-.06.29-.17Q99.72,71.55,98.45,71Z"/>
            <path class="cls-1" d="M100.56,69.14l-1.08-.56q-.41-.39-.87-.75l-.54-.43-.41-.33-.38-.31-.61-.48-.79-.61-.69-.52L95,65c0,.09,0,.16,0,.2a5.06,5.06,0,0,1-.23,1.29l-.07.25-.07.2a1.24,1.24,0,0,0-.05.33c0,.32.18.48.54.48a.9.9,0,0,0,.41-.11l.69.79-.34,0a2,2,0,0,1-1.37-.53,1.6,1.6,0,0,1-.59-1.23A2.7,2.7,0,0,1,94,66.2l.07-.39,0-.33a5.65,5.65,0,0,0,.1-.79A2.88,2.88,0,0,0,94,63.63l1.09.59q.56.5,1.2,1l.67.54.59.47.39.31.35.28.55.44.47.33.31.25a5.91,5.91,0,0,1,0-.62,7.26,7.26,0,0,1,.07-1l.06-.44.05-.41a3.78,3.78,0,0,0,0-.5,1.07,1.07,0,0,0-.39-.92.3.3,0,0,1,.2-.12.9.9,0,0,1,.68.39,1.26,1.26,0,0,1,.32.81,4.78,4.78,0,0,1,0,.5c0,.17,0,.31,0,.44l0,.4q0,.49,0,1A9.92,9.92,0,0,0,100.56,69.14Z"/>
            <path class="cls-1" d="M97.76,56.71a9.31,9.31,0,0,1,2,1.75A2.78,2.78,0,0,1,100.6,60q0,.67-.9.67a10.91,10.91,0,0,1-1.09-.09l-2.22-.24-.39,0-.44,0-.35,0c-.26,0-.39.07-.39.22q0,.52,1.15,1.11a.29.29,0,0,1-.22.13q-.42,0-1.12-.75a2.09,2.09,0,0,1-.7-1.19q0-.56.77-.56l.43,0,.52.06.57.06,1.94.21a9.07,9.07,0,0,0,1,.05c.31,0,.47-.12.47-.35q0-.76-1.26-1.73a5.41,5.41,0,0,0-2.5-1.14l-1.61-.24-.37-1.1q.79.19,1.4.29l2.83.41.43.05.37,0,.49,0c.19,0,.29-.05.29-.16q0-.58-1.27-1.17c.07-.12.15-.18.22-.18a2.31,2.31,0,0,1,1,.59,2.12,2.12,0,0,1,1,1.47q0,.5-.67.5a4.42,4.42,0,0,1-.56,0l-.54-.08-.6-.08Z"/>
          </g>
        </g>
        <rect class="cls-2" width="104.8" height="104.8"/>
      </g>
    </g>
  </g>
</svg>
