<svg xmlns="http://www.w3.org/2000/svg" viewBox="0 0 31.18 22.6">
  <defs>
    <style>
      .cls-1 {
        fill: #fff;
      }
    </style>
  </defs>
  <title>Mizu-logo-white</title>
  <g id="图层_2" data-name="图层 2">
    <g id="图层_1-2" data-name="图层 1">
      <g>
        <path class="cls-1" d="M3,9.67.37,12.15A8.72,8.72,0,0,1,0,9.67,8.31,8.31,0,0,1,3,3.14,11,11,0,0,1,10.44.54,12,12,0,0,1,11.76.6l.51,0h.21q0,.46,0,.67,0,2.45,2.14,7.88L15.31,11l.46,1.25.59,1.65q.48,1.3.83,2.59L18,15.12q1.37-2.27,2.44-4.13L22,8.31l1.21-2.22,1.46-2.67q.21-.36.81-1.49L28.57,0a59.13,59.13,0,0,0-1,9.51l-.21,5.19,0,2a10.14,10.14,0,0,0,.33,3.25,1.34,1.34,0,0,0,1.39.77,6,6,0,0,0,2-.32.59.59,0,0,1,.14.33q0,.52-1.08.78l-.84.21-4.52.92q-.08-1.49-.08-2.75a128,128,0,0,1,.72-14.39q-2.19,3.11-3.3,5.05l-1,1.64A46,46,0,0,0,18,18.64L15.68,21a31.35,31.35,0,0,0-2.38-8.43L12.68,11q-.13-.29-.57-1.4A25.47,25.47,0,0,1,10.75,5.4L9.46,13.26a20.2,20.2,0,0,1-1.18,4.82,4.74,4.74,0,0,1-2.18,2.1l4,.29-2,1.87L1.29,22l2-2,1.79.15a4.33,4.33,0,0,0,1.49-1.9,27.88,27.88,0,0,0,1-4.56L9.56,2.56H8.81q-6.61,0-6.61,4.37A5.74,5.74,0,0,0,3,9.67Z"/>
        <g>
          <path class="cls-1" d="M28.73,17.74l-.45-.18a1.08,1.08,0,0,0-.28-.4l.06,0Q28.36,17.13,28.73,17.74Zm1.74-.44s0-.06.07-.06a.74.74,0,0,1,.31.19.68.68,0,0,1,.32.48q0,.16-.21.16L30.41,18l-.6-.09-.15,0-.12,0h-.13q-.11,0-.11.06t.38.37a.1.1,0,0,1-.07,0q-.13,0-.36-.25a.69.69,0,0,1-.23-.39q0-.16.23-.16l.18,0,.15,0,.18,0,.63.09.14,0,.28,0c.06,0,.09,0,.09-.05S30.75,17.43,30.48,17.3Z"/>
          <path class="cls-1" d="M31.16,16.71l-.35-.18-.28-.24-.17-.14L30.22,16l-.12-.1-.2-.15-.25-.2-.22-.17-.06-.05s0,.05,0,.06a1.64,1.64,0,0,1-.07.42l0,.08,0,.07a.4.4,0,0,0,0,.11c0,.1.06.15.17.15a.29.29,0,0,0,.13,0l.22.25h-.11a.64.64,0,0,1-.44-.17.52.52,0,0,1-.19-.4.87.87,0,0,1,0-.16l0-.13,0-.11a1.83,1.83,0,0,0,0-.25.93.93,0,0,0-.07-.34l.35.19.39.33.22.17.19.15.12.1.11.09.18.14.15.11.1.08a1.91,1.91,0,0,1,0-.2,2.35,2.35,0,0,1,0-.31l0-.14,0-.13a1.22,1.22,0,0,0,0-.16.35.35,0,0,0-.13-.3.1.1,0,0,1,.06,0,.29.29,0,0,1,.22.13.41.41,0,0,1,.1.26,1.55,1.55,0,0,1,0,.16v.27q0,.16,0,.31A3.21,3.21,0,0,0,31.16,16.71Z"/>
          <path class="cls-1" d="M30.26,12.69a3,3,0,0,1,.65.56.9.9,0,0,1,.27.51q0,.22-.29.22l-.35,0-.72-.08h-.38c-.08,0-.13,0-.13.07s.12.23.37.36a.09.09,0,0,1-.07,0q-.14,0-.36-.24A.68.68,0,0,1,29,13.7q0-.18.25-.18h.14l.17,0,.18,0,.63.07.32,0c.1,0,.15,0,.15-.11s-.14-.35-.41-.56a1.75,1.75,0,0,0-.81-.37l-.52-.08L29,12.18l.45.09.92.13.14,0,.12,0h.16c.06,0,.09,0,.09-.05s-.14-.25-.41-.38c0,0,0-.06.07-.06a.75.75,0,0,1,.31.19.68.68,0,0,1,.32.48q0,.16-.22.16l-.18,0-.18,0-.19,0Z"/>
        </g>
      </g>
    </g>
  </g>
</svg>
